<?xml version="1.0" standalone="no"?><!DOCTYPE svg PUBLIC "-//W3C//DTD SVG 1.1//EN" "http://www.w3.org/Graphics/SVG/1.1/DTD/svg11.dtd"><svg t="1516323690359" class="icon" style="" viewBox="0 0 1157 1024" version="1.1" xmlns="http://www.w3.org/2000/svg" p-id="1466" xmlns:xlink="http://www.w3.org/1999/xlink" width="225.9765625" height="200"><defs><style type="text/css"></style></defs><path d="M1086.033752 753.710082 878.220684 753.710082 878.220684 951.774989 878.220684 1021.784509 878.220684 1023.113804 808.211164 1023.113804 808.211164 1021.784509 70.895716 1021.784509 70.895716 1023.113804 0.886196 1023.113804 0.886196 1021.784509 0.886196 951.774989 0.886196 339.413241 0.886196 269.403721 70.895716 269.403721 269.403721 269.403721 269.403721 0.886196 274.277802 0.886196 339.413241 0.886196 1086.033752 0.886196 1151.612289 0.886196 1156.043271 0.886196 1156.043271 683.700563 1156.043271 753.710082 1086.033752 753.710082ZM70.895716 951.774989 808.211164 951.774989 808.211164 753.710082 808.211164 683.700563 808.211164 339.413241 70.895716 339.413241 70.895716 951.774989ZM1086.033752 70.895716 339.413241 70.895716 339.413241 269.403721 808.211164 269.403721 878.220684 269.403721 878.220684 339.413241 878.220684 683.700563 1086.033752 683.700563 1086.033752 70.895716Z" p-id="1467"></path></svg>